<?xml version="1.0" ?><!DOCTYPE svg  PUBLIC '-//W3C//DTD SVG 1.1//EN'  'http://www.w3.org/Graphics/SVG/1.1/DTD/svg11.dtd'><svg enable-background="new 0 0 512 512" height="512px" id="Layer_1" version="1.1" viewBox="0 0 512 512" width="512px" xml:space="preserve" xmlns="http://www.w3.org/2000/svg" xmlns:xlink="http://www.w3.org/1999/xlink"><g><polyline fill="#F05336" points="0,512 512,512 512,0 0,0 0,512  "/><polyline fill="#010101" opacity="0.102" points="347,189 182,196 119,260 301,512 512,512 512,435 347,189  "/><path d="M295.802,226.195c-0.075,0.348-0.166,0.789-0.227,1.081l-2.63,12.306l2.767-12.965L295.802,226.195" fill="#5DA3C2"/><polyline fill="#5DA3C2" points="217.02,234.431 215.568,239.573 217.02,234.433 217.02,234.431  "/><path d="M94.4,121.88h4.44c0.48,0,1.411-0.15,2.791-0.45c0.695-0.136,1.264-0.48,1.705-1.039   c0.443-0.558,0.664-1.195,0.664-1.915c0-1.066-0.348-1.885-1.045-2.457s-2.007-0.858-3.927-0.858H94.4V121.88 M83.84,143v-34.56   h17.528c3.255,0,5.742,0.277,7.459,0.832c1.718,0.556,3.103,1.582,4.154,3.082c1.054,1.5,1.579,3.325,1.579,5.475   c0,1.881-0.41,3.5-1.229,4.859c-0.82,1.361-1.948,2.467-3.383,3.316c-0.915,0.535-2.168,0.98-3.757,1.335   c1.225,0.449,2.117,0.899,2.677,1.349c0.38,0.307,0.931,0.952,1.651,1.937c0.72,0.984,1.2,1.745,1.44,2.28L117.441,143h-11.739   l-5.887-10.845c-0.714-1.406-1.351-2.315-1.905-2.729c-0.76-0.551-1.62-0.825-2.58-0.825H94.4V143H83.84z" fill="#FFFFFF"/><path d="M145.521,143h-8.963v-4.215c-1.331,1.695-2.67,2.901-4.024,3.618c-1.352,0.718-3.016,1.077-4.99,1.077   c-2.626,0-4.686-0.785-6.182-2.355c-1.495-1.57-2.242-3.988-2.242-7.253V118.04h9.6v13.508c0,1.541,0.288,2.633,0.865,3.281   c0.579,0.647,1.392,0.971,2.441,0.971c1.14,0,2.075-0.43,2.802-1.293c0.728-0.862,1.092-2.412,1.092-4.647V118.04h9.6V143" fill="#FFFFFF"/><path d="M160.813,130.363c0,2.414,0.399,4.165,1.196,5.249c0.797,1.086,1.809,1.627,3.035,1.627   c1.129,0,2.078-0.532,2.845-1.602c0.769-1.067,1.152-2.86,1.152-5.38c0-2.226-0.375-3.858-1.129-4.898   c-0.752-1.039-1.662-1.56-2.725-1.56c-1.291,0-2.343,0.543-3.155,1.629C161.22,126.512,160.813,128.157,160.813,130.363    M151.281,108.44h9.6v11.744c0.955-0.875,2.037-1.531,3.247-1.969s2.547-0.656,4.012-0.656c3.036,0,5.545,1.088,7.526,3.26   c1.982,2.172,2.974,5.289,2.974,9.349c0,2.71-0.452,5.097-1.357,7.159c-0.904,2.063-2.157,3.603-3.76,4.622   c-1.603,1.02-3.38,1.531-5.33,1.531c-1.669,0-3.2-0.32-4.589-0.961c-1.045-0.5-2.186-1.44-3.42-2.819v3.3h-8.903V108.44z" fill="#FFFFFF"/><path d="M180.56,118.04h9.84l5.28,16.62l4.982-16.62h9.178l-9.869,26.632c-1.115,3.036-2.252,5.086-3.414,6.151   c-1.64,1.505-4.14,2.256-7.5,2.256c-1.36,0-3.464-0.177-6.314-0.531l-0.743-6.42c1.356,0.475,2.863,0.712,4.523,0.712   c1.105,0,2-0.281,2.685-0.844c0.686-0.563,1.266-1.566,1.74-3.011L180.56,118.04" fill="#FFFFFF"/><path d="M237.201,130.505c0,2.295,0.435,3.991,1.301,5.089c0.868,1.097,1.959,1.646,3.274,1.646   c1.324,0,2.414-0.54,3.266-1.623c0.852-1.082,1.279-2.819,1.279-5.209c0-2.225-0.43-3.883-1.289-4.973   c-0.861-1.09-1.923-1.635-3.189-1.635c-1.344,0-2.454,0.552-3.329,1.657S237.201,128.245,237.201,130.505 M227.6,130.589   c0-3.78,1.27-6.898,3.806-9.351c2.538-2.452,5.966-3.679,10.287-3.679c4.935,0,8.667,1.44,11.19,4.32   c2.026,2.32,3.037,5.178,3.037,8.572c0,3.811-1.257,6.935-3.771,9.372c-2.516,2.438-5.992,3.656-10.432,3.656   c-3.966,0-7.171-1.013-9.616-3.038C229.1,137.938,227.6,134.652,227.6,130.589z" fill="#FFFFFF"/><path d="M260.722,118.04h8.939v4.223c1.33-1.686,2.674-2.891,4.034-3.614c1.36-0.726,3.021-1.089,4.98-1.089   c2.64,0,4.707,0.785,6.203,2.354c1.493,1.571,2.241,3.995,2.241,7.274V143h-9.6v-13.522c0-1.545-0.289-2.638-0.865-3.277   c-0.577-0.641-1.393-0.961-2.441-0.961c-1.156,0-2.094,0.433-2.814,1.299c-0.72,0.864-1.079,2.414-1.079,4.649V143h-9.599V118.04" fill="#FFFFFF"/><path d="M320.239,121.88h4.44c0.48,0,1.411-0.15,2.792-0.45c0.693-0.136,1.263-0.48,1.704-1.039   c0.442-0.558,0.664-1.195,0.664-1.915c0-1.066-0.348-1.885-1.046-2.457c-0.696-0.572-2.006-0.858-3.927-0.858h-4.628V121.88    M309.68,143v-34.56h17.528c3.256,0,5.741,0.277,7.459,0.832c1.717,0.556,3.103,1.582,4.154,3.082   c1.054,1.5,1.578,3.325,1.578,5.475c0,1.881-0.408,3.5-1.229,4.859c-0.819,1.361-1.948,2.467-3.383,3.316   c-0.916,0.535-2.168,0.98-3.757,1.335c1.224,0.449,2.117,0.899,2.677,1.349c0.381,0.307,0.93,0.952,1.651,1.937   c0.719,0.984,1.198,1.745,1.44,2.28L343.28,143h-11.737l-5.887-10.845c-0.715-1.406-1.352-2.315-1.906-2.729   c-0.759-0.551-1.62-0.825-2.579-0.825h-0.932V143H309.68z" fill="#FFFFFF"/><path d="M362.961,131.48c-1.25,0.445-2.55,0.837-3.901,1.177c-1.844,0.491-3.012,0.972-3.502,1.448   c-0.504,0.489-0.756,1.047-0.756,1.672c0,0.711,0.248,1.292,0.745,1.743c0.497,0.453,1.229,0.68,2.195,0.68   c1.013,0,1.953-0.246,2.821-0.735c0.869-0.489,1.484-1.087,1.851-1.793c0.363-0.704,0.547-1.62,0.547-2.743V131.48 M355.761,126.68   l-9.6-0.96c0.339-1.695,0.83-3.031,1.469-4.005c0.641-0.976,1.563-1.82,2.769-2.535c0.864-0.515,2.054-0.913,3.565-1.195   c1.513-0.282,3.149-0.425,4.908-0.425c2.826,0,5.097,0.16,6.811,0.48c1.716,0.319,3.143,0.988,4.283,2.003   c0.805,0.704,1.438,1.7,1.901,2.988c0.462,1.288,0.692,2.517,0.692,3.687v10.988c0,1.169,0.076,2.086,0.222,2.751   c0.148,0.665,0.472,1.512,0.972,2.543h-9.18c-0.37-0.651-0.609-1.146-0.725-1.485c-0.111-0.34-0.224-0.874-0.333-1.605   c-1.226,1.191-2.442,2.04-3.653,2.551c-1.654,0.681-3.577,1.021-5.766,1.021c-2.912,0-5.12-0.672-6.631-2.019   c-1.51-1.345-2.266-3.002-2.266-4.973c0-1.849,0.545-3.369,1.628-4.56c1.086-1.195,3.089-2.082,6.015-2.661   c3.5-0.701,5.771-1.193,6.811-1.476c1.039-0.282,2.144-0.652,3.308-1.113c0-1.065-0.211-1.81-0.634-2.238   c-0.424-0.429-1.163-0.642-2.225-0.642c-1.357,0-2.38,0.246-3.06,0.735C356.513,124.914,356.086,125.629,355.761,126.68z" fill="#FFFFFF"/><path d="M378.802,118.04h9.6V143h-9.6V118.04 M378.802,108.44h9.6v6.72h-9.6V108.44z" fill="#FFFFFF"/><polyline fill="#FFFFFF" points="394.641,108.44 404.242,108.44 404.242,143 394.641,143 394.641,108.44  "/><path d="M408.56,136.28l9.601-0.96c0.34,1.028,0.816,1.769,1.434,2.212c0.614,0.445,1.433,0.668,2.452,0.668   c1.119,0,1.988-0.268,2.603-0.803c0.474-0.395,0.714-0.889,0.714-1.477c0-0.672-0.197-1.189-0.586-1.553   c-0.28-0.26-1.531-0.58-3.75-0.961c-3.32-0.564-5.627-1.094-6.916-1.586c-1.29-0.492-2.377-1.324-3.262-2.493   c-0.885-1.171-1.328-2.503-1.328-3.999c0-1.641,0.476-3.052,1.425-4.236c0.949-1.186,2.258-2.07,3.922-2.655   c1.667-0.586,3.901-0.878,6.706-0.878c2.961,0,5.146,0.229,6.555,0.687c1.408,0.458,2.586,1.167,3.525,2.13   c0.94,0.963,1.723,2.265,2.347,3.904l-9.601,0.959c-0.209-0.764-0.56-1.325-1.048-1.68c-0.672-0.48-1.479-0.72-2.425-0.72   c-0.963,0-1.666,0.187-2.106,0.559s-0.66,0.827-0.66,1.362c0,0.588,0.297,1.036,0.894,1.342c0.59,0.305,1.931,0.58,4.027,0.826   c3.18,0.349,5.543,0.84,7.091,1.469c1.548,0.631,2.731,1.532,3.555,2.704s1.234,2.458,1.234,3.858c0,1.415-0.433,2.793-1.298,4.133   c-0.863,1.34-2.229,2.406-4.09,3.197c-1.863,0.795-4.4,1.19-7.609,1.19c-4.542,0-7.773-0.626-9.698-1.875   C410.34,140.354,409.105,138.579,408.56,136.28" fill="#FFFFFF"/><path d="M137.58,260l106.842,112.368L193.32,260H137.58z M207.408,260l48.916,111.198L305.242,260H207.408z    M371.526,260h-52.197l-50.962,112.368L371.526,260z M213.488,247.105h87.733l-43.867-45.819L213.488,247.105z M332.794,197.368   h-63.891l43.776,45.725L332.794,197.368z M179.855,197.368l20.762,47.197l45.188-47.197H179.855z M371.663,247.105l-28.111-42.167   l-18.551,42.167H371.663z M141.66,247.105h45.986l-18.133-41.223L141.66,247.105z M167.053,190h178.684l44.211,66.316L255.474,400   L121,258.157L167.053,190z" fill="#FFFFFF"/><path d="M137.58,260   l106.842,112.368L193.32,260H137.58z M207.408,260l48.916,111.198L305.242,260H207.408z M371.526,260h-52.197l-50.962,112.368   L371.526,260z M213.488,247.105h87.733l-43.867-45.819L213.488,247.105z M332.794,197.368h-63.891l43.776,45.725L332.794,197.368z    M179.855,197.368l20.762,47.197l45.188-47.197H179.855z M371.663,247.105l-28.111-42.167l-18.551,42.167H371.663z M141.66,247.105   h45.986l-18.133-41.223L141.66,247.105z M167.053,190h178.684l44.211,66.316L255.474,400L121,258.157L167.053,190z" fill="none" stroke="#FFFFFF" stroke-linejoin="round" stroke-miterlimit="10" stroke-width="3"/></g></svg>